<svg width="1080" height="1029" viewBox="0 0 1080 1029" fill="none" xmlns="http://www.w3.org/2000/svg">
<path d="M387.761 774.966C337.603 449.273 333.431 368.044 390.333 197.447C402.044 170.623 423.475 99.2402 497.797 67.9595C396.175 106.065 185.295 193.758 154.748 239.687C100.705 323.26 22.8882 546.952 143.964 773.128C173.37 796.312 285.767 858.632 480.408 935.765C452.917 921.288 405.847 863.468 387.761 774.966Z" fill="#B187A4" stroke="black"/>
<path d="M496.963 942.968C430.195 921.513 395.497 817.698 386.494 768.472C881.211 559.608 1015.82 486.01 1027.77 436.81L950.9 753.348C913.5 892 580.423 969.787 496.963 942.968Z" fill="#B187A4" stroke="black"/>
<path d="M859.876 557.383C735.698 388.861 494.204 275.881 381.319 227.951C409.278 124.173 460.352 82.5429 497.671 67.9323C753.577 119.024 1045.44 352.43 1027.77 436.81C1019.52 476.195 900.582 538.498 859.876 557.383Z" fill="#B187A4" stroke="black"/>
</svg>
